<svg width="11" height="5" viewBox="0 0 11 5" fill="none" xmlns="http://www.w3.org/2000/svg">
<path d="M9.83298 0.477839C9.70782 0.354677 9.53744 0.2854 9.3597 0.2854C9.18196 0.2854 9.01159 0.354677 8.88642 0.477839L5.83343 3.45747C5.70827 3.58063 5.53789 3.6499 5.36015 3.6499C5.18242 3.6499 5.01204 3.58063 4.88687 3.45747L1.83389 0.477839C1.70872 0.354677 1.53834 0.2854 1.36061 0.2854C1.18287 0.2854 1.01249 0.354677 0.887327 0.477839C0.628874 0.731587 0.628874 1.1414 0.887327 1.39515L3.94698 4.38128C4.72774 5.14233 5.99257 5.14233 6.77333 4.38128L9.83298 1.39515C10.0914 1.1414 10.0914 0.731587 9.83298 0.477839Z" fill="black"/>
</svg>
