<svg width="20" height="21" viewBox="0 0 20 21" fill="none" xmlns="http://www.w3.org/2000/svg">
<path fill-rule="evenodd" clip-rule="evenodd" d="M19.9041 14.1732L17.6309 5.9767C16.6321 2.36895 13.3056 -0.0946817 9.56484 0.00279218C5.82404 0.100266 2.63031 2.7338 1.82059 6.38867L0.0623301 14.3044C-0.109997 15.0812 0.0792996 15.8942 0.576984 16.5149C1.07467 17.1355 1.82698 17.4967 2.62234 17.4969H5.776C6.18972 19.5352 7.98114 21 10.0602 21C12.1392 21 13.9306 19.5352 14.3443 17.4969H17.3782C18.1972 17.4966 18.969 17.1135 19.4648 16.4614C19.9606 15.8092 20.1234 14.9629 19.905 14.1732H19.9041ZM10.0602 19.2463C8.95259 19.2417 7.96727 18.5416 7.59808 17.4969H12.5222C12.1531 18.5416 11.1677 19.2417 10.0602 19.2463ZM17.3738 15.7476C17.6485 15.7496 17.9079 15.6215 18.0733 15.4021C18.2383 15.1842 18.2911 14.9013 18.2158 14.6385L15.9426 6.44202C15.1559 3.61102 12.5441 1.67896 9.60795 1.75591C6.67176 1.83286 4.16473 3.89907 3.52726 6.7674L1.769 14.6831C1.71146 14.9421 1.77451 15.2132 1.94041 15.4202C2.10632 15.6271 2.35715 15.7476 2.62234 15.7476H17.3738Z" fill="black"/>
</svg>
