<svg width="20" height="20" viewBox="0 0 20 20" fill="none" xmlns="http://www.w3.org/2000/svg">
<path fill-rule="evenodd" clip-rule="evenodd" d="M9.77193 0.5C9.22831 0.500453 8.7344 0.80765 8.50608 1.28731L6.08607 6.3822H1.39497C0.83066 6.38268 0.322134 6.7134 0.106248 7.22032C-0.109638 7.72724 0.00957197 8.31068 0.408353 8.69888L4.05698 12.2463L2.8144 17.857C2.69477 18.3994 2.92659 18.9579 3.39987 19.2677C3.87316 19.5775 4.49267 19.5761 4.96449 19.2642L9.76727 16.0969L14.5608 19.2642C15.0177 19.567 15.6153 19.5791 16.0848 19.2951C16.5543 19.011 16.8071 18.4843 16.7295 17.952L15.9011 12.287L19.5962 8.69435C19.9911 8.30633 20.1086 7.72607 19.8943 7.22151C19.68 6.71696 19.1757 6.38629 18.6143 6.3822H13.4578L11.0378 1.28731C10.8095 0.80765 10.3155 0.500453 9.77193 0.5Z" fill="#FDD020"/>
</svg>
