<svg width="28" height="28" viewBox="0 0 28 28" fill="none" xmlns="http://www.w3.org/2000/svg">
<path fill-rule="evenodd" clip-rule="evenodd" d="M4.66675 14.0001C4.66675 19.1547 8.84542 23.3334 14.0001 23.3334C19.1524 23.3278 23.3278 19.1524 23.3334 14.0001C23.3334 8.84542 19.1547 4.66675 14.0001 4.66675C8.84542 4.66675 4.66675 8.84542 4.66675 14.0001ZM6.2223 14.0001C6.2223 9.70453 9.70453 6.2223 14.0001 6.2223C18.2937 6.22702 21.7731 9.70649 21.7779 14.0001C21.7779 18.2956 18.2956 21.7779 14.0001 21.7779C9.70453 21.7779 6.2223 18.2956 6.2223 14.0001Z" fill="#979797"/>
<path d="M14.7778 16.3334H13.2222V15.7555C13.1988 14.6379 13.7837 13.5956 14.7498 13.0333C15.3393 12.7086 15.6531 12.0416 15.5276 11.3805C15.4036 10.7524 14.9116 10.2619 14.2831 10.1399C13.8292 10.0559 13.3614 10.1778 13.0063 10.4727C12.6511 10.7676 12.4453 11.2051 12.4445 11.6667H10.8889C10.8895 10.1492 11.9848 8.85343 13.481 8.60028C14.9773 8.34713 16.4379 9.21044 16.9376 10.6433C17.4373 12.0762 16.8303 13.6606 15.5011 14.3928C15.0337 14.685 14.7579 15.2046 14.7778 15.7555V16.3334Z" fill="#979797"/>
<rect x="13.2222" y="17.8889" width="1.55556" height="1.55556" fill="#979797"/>
</svg>
