<svg width="16" height="16" viewBox="0 0 16 16" fill="none" xmlns="http://www.w3.org/2000/svg">
<path fill-rule="evenodd" clip-rule="evenodd" d="M8 0C12.4183 0 16 3.58172 16 8C16 12.4183 12.4183 16 8 16C3.58172 16 0 12.4183 0 8C0 3.58172 3.58172 0 8 0ZM8 1.57185C4.44983 1.57185 1.57185 4.44983 1.57185 8C1.57185 11.5502 4.44983 14.4282 8 14.4282C11.5502 14.4282 14.4282 11.5502 14.4282 8C14.4282 4.44983 11.5502 1.57185 8 1.57185ZM8 10.4L8.10453 10.4062C8.51543 10.4556 8.83333 10.7922 8.83333 11.2C8.83333 11.6418 8.46024 12 8 12C7.53976 12 7.16667 11.6418 7.16667 11.2C7.16667 10.7922 7.48457 10.4556 7.89547 10.4062L8 10.4ZM8 3.75C10.1696 3.75 10.75 4.90465 10.75 6.924C10.75 7.55056 10.4683 7.90287 9.72949 8.41748L9.25326 8.74353L9.04854 8.89618C8.81527 9.0806 8.71661 9.20708 8.6956 9.33248L8.68492 9.48237C8.6395 9.82818 8.3523 10.098 8 10.098C7.61567 10.098 7.30882 9.77689 7.30882 9.38632C7.30882 8.70291 7.63304 8.21317 8.26192 7.72501L8.42548 7.6029L8.9869 7.21638L9.16508 7.08667L9.33324 6.95506L9.36765 6.924C9.36765 5.57706 9.12303 5.17337 8 5.17337C6.96578 5.17337 6.63235 5.70077 6.63235 6.30842C6.63235 6.699 6.32551 7.02011 5.94118 7.02011C5.55685 7.02011 5.25 6.699 5.25 6.30842C5.25 4.95938 6.20731 3.75 8 3.75Z" fill="#222222"/>
</svg>
