<svg width="23" height="21" viewBox="0 0 23 21" fill="none" xmlns="http://www.w3.org/2000/svg">
<path d="M1 6.5H8" stroke="#222222" stroke-width="2" stroke-linecap="round" stroke-linejoin="round"/>
<path d="M1 1.5H19" stroke="#222222" stroke-width="2" stroke-linecap="round" stroke-linejoin="round"/>
<path d="M1 11.5H5" stroke="#222222" stroke-width="2" stroke-linecap="round" stroke-linejoin="round"/>
<path d="M1 16.5H8" stroke="#222222" stroke-width="2" stroke-linecap="round" stroke-linejoin="round"/>
<path fill-rule="evenodd" clip-rule="evenodd" d="M19.7945 7.30061C21.8657 9.5995 21.9704 13.0553 20.149 15.4697L19.9833 15.68L19.9291 15.742L22.8648 18.7291L22.864 18.7886L22.8902 18.8322C23.0421 19.1242 23.036 19.4772 22.874 19.7637L22.806 19.8678L22.7233 19.9641C22.3861 20.309 21.8547 20.3447 21.4685 20.0557L21.3751 19.9767L18.4727 17.0086L18.3833 17.0658C15.849 18.5994 12.5959 18.0978 10.6176 15.8719L10.4464 15.6711L10.2908 15.4729C8.26351 12.7833 8.66572 8.94044 11.2053 6.74944C13.7507 4.55337 17.5387 4.79684 19.7945 7.30061ZM15.2524 7.27522C12.9075 7.27522 11.0023 9.22394 11.0023 11.6329C11.0023 14.0419 12.9075 15.9907 15.2524 15.9907C17.5973 15.9907 19.5025 14.0419 19.5025 11.6329C19.5025 9.22394 17.5973 7.27522 15.2524 7.27522Z" fill="#222222"/>
</svg>
