<svg width="16" height="18" viewBox="0 0 16 18" fill="none" xmlns="http://www.w3.org/2000/svg">
<path d="M15.0975 11.495C14.3395 10.7991 13.5453 8.75556 13.5453 7.42549C13.5453 7.37704 13.5453 7.3374 13.5363 7.30657V5.41276C13.5363 2.42671 11.0547 0.00439453 7.99543 0.00439453C4.93621 0.00439453 2.45905 2.4223 2.45905 5.40836V7.31979C2.45905 7.34621 2.45003 7.38144 2.45003 7.42108C2.45003 8.75556 1.6604 10.7947 0.897855 11.4906C0.139818 12.1908 -0.15347 12.5696 0.0676239 13.3183C0.284206 14.0714 1.16407 14.1243 1.16407 14.1243H3.16294V14.1155H12.8279L12.8369 14.1243H14.8358C14.8358 14.1243 15.7157 14.0714 15.9323 13.3183C16.1488 12.5696 15.8601 12.1908 15.0975 11.4906V11.495ZM7.99994 18C9.62882 18 11.014 16.965 11.5059 15.5336H4.49853C4.98584 16.965 6.37106 18 7.99994 18Z" fill="#1A51BE"/>
</svg>
