<svg width="12" height="12" viewBox="0 0 12 12" fill="none" xmlns="http://www.w3.org/2000/svg">
<path fill-rule="evenodd" clip-rule="evenodd" d="M6 12C9.31371 12 12 9.31371 12 6C12 2.68629 9.31371 0 6 0C2.68629 0 0 2.68629 0 6C0 9.31371 2.68629 12 6 12ZM4.93276 2.46174C5.35026 2.31295 5.81376 2.43855 6.10587 2.77963L8.24475 5.25761C8.61175 5.68128 8.61175 6.32073 8.24475 6.7444L6.10587 9.22238C5.89982 9.46282 5.60316 9.60039 5.29161 9.59998C4.71279 9.6033 4.23336 9.13857 4.2021 8.54389C4.18497 8.24741 4.28412 7.95624 4.47735 7.73559L5.97398 6.00101L4.47735 4.26642C4.28328 4.04628 4.18401 3.75475 4.2021 3.45813C4.22657 3.00422 4.51525 2.61054 4.93276 2.46174Z" fill="#00AAB5"/>
</svg>
