<svg width="22" height="24" viewBox="0 0 22 24" fill="none" xmlns="http://www.w3.org/2000/svg">
<path d="M21.3486 8.34721L21.4484 8.64055C22.9586 13.0814 21.295 17.955 17.3499 20.6523C13.6727 23.1665 8.81559 23.2417 5.07764 20.9247L4.80616 20.7509L4.66617 20.6555L4.90576 22.2882C4.93475 22.4813 4.9085 22.6766 4.83254 22.8535L4.76633 22.9825L4.69728 23.0833C4.54774 23.2768 4.33595 23.4139 4.08077 23.4756L3.94965 23.5H3.82302C3.32164 23.4983 2.88983 23.1668 2.76595 22.7026L2.74153 22.5839L2.14171 18.5241C2.09944 18.2424 2.17463 17.9562 2.35019 17.729C2.49973 17.5354 2.71152 17.3983 2.94978 17.3379L3.07096 17.3141L7.2707 16.734C7.87305 16.6525 8.43199 17.0602 8.51723 17.6489C8.59698 18.1997 8.23328 18.7094 7.69379 18.8413L7.57559 18.8637L6.13153 19.0612L6.22941 19.1242C8.93547 20.8162 12.3895 20.9418 15.2193 19.4516L15.5001 19.2971L15.7679 19.1373C18.7826 17.2654 20.3131 13.8221 19.6645 10.437L19.6071 10.1627L19.6622 9.97781L21.3486 8.34721ZM17.4508 0.510378C18.013 0.434275 18.5374 0.78436 18.674 1.30955L18.6972 1.42468L19.2971 5.48449C19.3393 5.76616 19.2641 6.05238 19.0886 6.2796C18.939 6.47316 18.7272 6.61025 18.489 6.67073L18.3678 6.69449L14.1417 7.27637L14.029 7.27592C13.4256 7.31676 12.8997 6.87479 12.857 6.28484C12.8171 5.73352 13.2136 5.25275 13.7469 5.15897L15.8027 4.87885L15.6491 4.78151C14.4615 4.06559 13.1129 3.63539 11.717 3.52734L11.3672 3.50706L11.0157 3.50033C8.33747 3.49156 5.80124 4.66139 4.12422 6.67808C2.5131 8.61552 1.86314 11.1323 2.33353 13.5652L2.39536 13.8567L2.34047 14.0424L0.660722 15.6666L0.560474 15.3743C-0.916082 11.0704 0.590008 6.33464 4.31037 3.57807C7.76626 1.01747 12.4279 0.68676 16.207 2.65697L16.4959 2.81307L16.6866 2.92386L16.5089 1.72524C16.4348 1.21376 16.7431 0.737736 17.2197 0.566687L17.3325 0.532751L17.4508 0.510378Z" fill="#222222"/>
</svg>
