<svg width="12" height="12" viewBox="0 0 12 12" fill="none" xmlns="http://www.w3.org/2000/svg">
<path fill-rule="evenodd" clip-rule="evenodd" d="M1.44135 0.453608L0.916517 0.908466V0.913465C0.316713 1.50828 0.00181675 2.28803 0.00181675 3.12277C0.00181675 6.93658 5.06016 12 8.87891 12C9.71864 12 10.4934 11.6851 11.0682 11.1103L11.568 10.5355C12.1478 9.95564 12.1478 8.97594 11.543 8.37113C11.528 8.35614 10.3234 7.43143 10.3234 7.43143C9.72864 6.85661 8.77895 6.85661 8.18414 7.43143L7.45438 8.01624C5.8549 7.33646 4.72027 6.19681 3.99051 4.54233L4.57032 3.81256C5.14014 3.21774 5.14014 2.27304 4.57032 1.67323C4.57032 1.67323 3.64562 0.468604 3.63063 0.453608C3.02583 -0.151203 2.04615 -0.151203 1.44135 0.453608ZM10.3334 10.4205C9.97356 10.7854 9.44873 10.9953 8.87891 10.9953C5.88489 10.9953 1.00149 6.59669 1.00149 3.11778C1.00149 2.54795 1.21642 2.02312 1.60129 1.63824L2.12612 1.18338C2.35605 0.953452 2.69094 0.948454 2.90587 1.14339C2.90587 1.14339 3.82557 2.33802 3.84056 2.35301C4.05549 2.56795 4.05549 2.91284 3.84056 3.12777C3.83056 3.13777 3.02583 4.14745 3.02583 4.14745C2.91087 4.29241 2.88587 4.48235 2.95085 4.6473C3.80557 6.78163 5.29009 8.26117 7.35941 9.05092C7.52436 9.1159 7.7093 9.08591 7.84925 8.97594C7.84925 8.97594 8.85392 8.1712 8.86892 8.1562C9.07885 7.95127 9.43873 7.95127 9.64366 8.1562C9.65866 8.1712 10.8533 9.09091 10.8533 9.09091C11.0482 9.30584 11.0382 9.64074 10.8333 9.84567L10.3334 10.4205Z" fill="black"/>
</svg>
