<svg width="24" height="24" viewBox="0 0 24 24" fill="none" xmlns="http://www.w3.org/2000/svg">
<path fill-rule="evenodd" clip-rule="evenodd" d="M15.1556 2.95681C15.0675 1.724 14.0403 0.751282 12.7855 0.75H11.2147L11.0449 0.756129C9.81224 0.844254 8.83952 1.87147 8.83824 3.12625L8.83823 3.22132L8.82669 3.31202C8.79275 3.45983 8.68729 3.58776 8.54059 3.64848C8.36455 3.72134 8.16211 3.68375 8.02396 3.55255L7.96915 3.49408L7.82506 3.3614C6.88726 2.56536 5.48656 2.60937 4.60449 3.48943L3.48992 4.59959L3.35795 4.7432C2.56612 5.67807 2.61009 7.07823 3.48931 7.96083L3.55652 8.02804L3.61454 8.10099C3.69769 8.23073 3.71227 8.39733 3.64713 8.5431C3.57419 8.72391 3.40651 8.83759 3.21983 8.83824L3.12647 8.83823L2.95681 8.84436C1.724 8.93249 0.751282 9.95971 0.75 11.2145V12.7853L0.756129 12.955C0.844254 14.1878 1.87147 15.1605 3.12625 15.1618H3.22059L3.31349 15.1721C3.46445 15.2047 3.59277 15.3121 3.64988 15.4612C3.72405 15.6392 3.68482 15.8373 3.55301 15.9689L3.48593 16.0359L3.35401 16.1795C2.56245 17.1141 2.60641 18.5143 3.48563 19.3969L4.59628 20.5068L4.73972 20.6389C5.67372 21.4319 7.07536 21.3878 7.95736 20.5068L8.02436 20.4398L8.09733 20.3818C8.22708 20.2988 8.39371 20.2842 8.53957 20.3493C8.72036 20.4219 8.83399 20.5893 8.83456 20.7757L8.83456 20.8699L8.84364 21.0791C8.89224 21.6338 9.13438 22.1564 9.53126 22.5533C9.97774 22.9998 10.5834 23.2504 11.2149 23.25H12.7853L12.955 23.2439C14.1878 23.1557 15.1605 22.1285 15.1618 20.8738V20.7787L15.1733 20.688C15.2072 20.5402 15.3127 20.4122 15.4594 20.3515C15.6355 20.2787 15.8379 20.3162 15.976 20.4475L16.0389 20.5104L16.1823 20.6424C17.1164 21.4346 18.5171 21.3906 19.3992 20.5106L20.5103 19.4009L20.6422 19.2574C21.4339 18.3227 21.3899 16.9225 20.5107 16.0399L20.4435 15.9727L20.3855 15.8997C20.3023 15.77 20.2877 15.6034 20.3529 15.4576C20.4257 15.2764 20.5935 15.1625 20.7803 15.1618L20.8735 15.1618L21.0432 15.1556C22.276 15.0675 23.2487 14.0403 23.25 12.7855V11.2147L23.2439 11.045C23.1557 9.81223 22.1285 8.83952 20.8738 8.83823H20.7794L20.6865 8.8279C20.5355 8.79528 20.4072 8.68792 20.3501 8.53877C20.2759 8.36083 20.3152 8.16268 20.447 8.03114L20.5141 7.96407L20.646 7.82051C21.4376 6.8859 21.3936 5.48574 20.5144 4.60314L19.403 3.4925L19.2595 3.36047C18.3255 2.5683 16.9248 2.61231 16.0427 3.49237L15.9756 3.55946L15.9027 3.61683C15.7731 3.6994 15.6068 3.71593 15.4591 3.65462C15.2818 3.58104 15.1651 3.40938 15.1617 3.21749L15.1618 3.12647L15.1556 2.95681ZM11.2149 2.66176H12.7851C13.0417 2.66204 13.2497 2.87004 13.25 3.12671V3.22132L13.2593 3.4124C13.3375 4.29677 13.8996 5.07103 14.7281 5.41408C15.6157 5.78163 16.6371 5.58298 17.3223 4.90952L17.3905 4.84127L17.4634 4.78173C17.6438 4.66265 17.8889 4.6825 18.0477 4.84128L19.1579 5.95225L19.2174 6.02517C19.3363 6.20559 19.3164 6.45066 19.1578 6.60963L19.0911 6.67637L18.9625 6.81805C18.3921 7.49874 18.2421 8.44405 18.5855 9.27264C18.9535 10.1604 19.8166 10.7421 20.7776 10.75L20.8735 10.75L20.957 10.7576C21.1736 10.7971 21.338 10.9868 21.3382 11.2149V12.7853L21.3307 12.8688C21.2911 13.0854 21.1014 13.2498 20.8733 13.25L20.7794 13.25L20.5883 13.2592C19.7039 13.3371 18.9293 13.8992 18.5861 14.7277C18.2183 15.6154 18.4169 16.637 19.0905 17.3223L19.1571 17.3897L19.2169 17.4629C19.3364 17.6441 19.3165 17.8895 19.1578 18.0487L18.0471 19.1579L17.9741 19.2175C17.7937 19.3366 17.5486 19.3168 17.3898 19.158L17.3245 19.0919L17.1826 18.9633C16.5011 18.393 15.5563 18.2433 14.7282 18.5864C13.8408 18.954 13.2589 19.8162 13.25 20.7766L13.25 20.8735L13.2424 20.957C13.2029 21.1736 13.0132 21.338 12.7851 21.3382H11.2147L11.1312 21.3307C10.9146 21.2911 10.7502 21.1014 10.75 20.8733V20.7787L10.7415 20.5873C10.6664 19.7016 10.1043 18.9243 9.27412 18.5806C8.38462 18.2123 7.36098 18.4135 6.67709 19.0911L6.60946 19.1587L6.53655 19.218C6.35615 19.3367 6.11112 19.3168 5.95196 19.1584L4.84196 18.0491L4.78252 17.9761C4.66363 17.7956 4.68348 17.5503 4.84223 17.3911L4.90892 17.3244L5.03764 17.1827C5.60841 16.5021 5.75877 15.5564 5.41527 14.7275C5.04724 13.8394 4.18365 13.2575 3.22232 13.25L3.12647 13.25L3.04301 13.2424C2.82638 13.2029 2.66201 13.0132 2.66176 12.7851V11.2147L2.66933 11.1312C2.70886 10.9146 2.89856 10.7502 3.12671 10.75L3.22059 10.75L3.41168 10.7408C4.29615 10.6629 5.07068 10.1008 5.41392 9.27227C5.78168 8.38457 5.58308 7.36299 4.90952 6.67772L4.84287 6.61033L4.78316 6.53713C4.66373 6.35617 4.68356 6.1111 4.84218 5.95213L5.95235 4.84122L6.02523 4.7817C6.20557 4.66265 6.45068 4.6825 6.60947 4.84128L6.67478 4.90732L6.81661 5.03603C7.49797 5.60672 8.44286 5.75677 9.27131 5.4138C10.1589 5.04633 10.741 4.18401 10.75 3.22338L10.75 3.12647L10.7576 3.04301C10.7971 2.82638 10.9868 2.66201 11.2149 2.66176ZM12.0003 6.63235C14.9632 6.63573 17.3643 9.03682 17.3676 12C17.3676 14.9645 14.9645 17.3676 12 17.3676C9.03553 17.3676 6.63235 14.9645 6.63235 12C6.63235 9.11565 8.90738 6.76266 11.7609 6.63758L12.0003 6.63235ZM8.54412 12C8.54412 10.0914 10.0914 8.54412 12 8.54412C13.9086 8.54412 15.4559 10.0914 15.4559 12C15.4536 13.9076 13.9076 15.4536 11.9997 15.4559C10.0914 15.4559 8.54412 13.9086 8.54412 12Z" fill="#222222"/>
</svg>
