<svg width="20" height="20" viewBox="0 0 20 20" fill="none" xmlns="http://www.w3.org/2000/svg">
<path fill-rule="evenodd" clip-rule="evenodd" d="M7 5.5C7 3.84315 8.34315 2.5 10 2.5C11.6569 2.5 13 3.84315 13 5.5C13 7.15685 11.6569 8.5 10 8.5C8.34315 8.5 7 7.15685 7 5.5ZM10 0.5C7.23858 0.5 5 2.73858 5 5.5C5 8.26142 7.23858 10.5 10 10.5C12.7614 10.5 15 8.26142 15 5.5C15 2.73858 12.7614 0.5 10 0.5ZM6 11.5C4.56078 11.5 3.1952 11.9386 2.17192 12.8048C1.13278 13.6844 0.5 14.9637 0.5 16.5V18C0.5 18.8284 1.17157 19.5 2 19.5H18C18.8284 19.5 19.5 18.8284 19.5 18V16.5C19.5 14.9637 18.8672 13.6844 17.8281 12.8048C16.8048 11.9386 15.4392 11.5 14 11.5H6ZM2.5 16.5C2.5 15.551 2.87458 14.8303 3.46412 14.3313C4.06952 13.8188 4.95394 13.5 6 13.5H14C15.0461 13.5 15.9305 13.8188 16.5359 14.3313C17.1254 14.8303 17.5 15.551 17.5 16.5V17.5H2.5V16.5Z" fill="#222222"/>
</svg>
