<svg width="14" height="14" viewBox="0 0 14 14" fill="none" xmlns="http://www.w3.org/2000/svg">
<path fill-rule="evenodd" clip-rule="evenodd" d="M7.0001 0.600006C10.5347 0.600006 13.4001 3.46538 13.4001 7.00001C13.4001 10.5346 10.5347 13.4 7.0001 13.4C3.46548 13.4 0.600098 10.5346 0.600098 7.00001C0.600098 3.46538 3.46548 0.600006 7.0001 0.600006ZM7.0001 1.85748C4.15996 1.85748 1.85758 4.15987 1.85758 7.00001C1.85758 9.84014 4.15996 12.1425 7.0001 12.1425C9.84023 12.1425 12.1426 9.84014 12.1426 7.00001C12.1426 4.15987 9.84023 1.85748 7.0001 1.85748Z" fill="black"/>
<path fill-rule="evenodd" clip-rule="evenodd" d="M6.79708 3.8C7.10612 3.8 7.36031 4.00719 7.39088 4.27269L7.39396 4.32653L7.39374 6.74672L9.60331 6.74696C9.89176 6.74696 10.1324 6.92744 10.1881 7.16737L10.1971 7.21965L10.2002 7.27348C10.2002 7.5461 9.96532 7.77032 9.66434 7.79728L9.60331 7.8H6.2002V4.32653C6.2002 4.03574 6.46743 3.8 6.79708 3.8Z" fill="black"/>
</svg>
