<svg width="17" height="16" viewBox="0 0 17 16" fill="none" xmlns="http://www.w3.org/2000/svg">
<path fill-rule="evenodd" clip-rule="evenodd" d="M16.0889 7.25899C15.4448 5.86207 14.5014 4.62389 13.3255 3.63216L15.3469 1.61073L14.4035 0.666687L12.2081 2.86012C10.993 2.15724 9.61173 1.7928 8.20802 1.80474C3.20789 1.80474 0.9125 5.97894 0.327152 7.25899C0.168151 7.60611 0.168151 8.00526 0.327152 8.35238C0.971259 9.7493 1.91467 10.9875 3.09056 11.9792L1.06984 14.0006L2.01253 14.9434L4.20792 12.7499C5.42304 13.4528 6.80431 13.8172 8.20802 13.8053C13.2081 13.8053 15.5035 9.6311 16.0889 8.35105C16.2476 8.00432 16.2476 7.60572 16.0889 7.25899ZM1.54118 7.81235C2.0412 6.71564 4.00325 3.13814 8.20802 3.13814C9.25445 3.13202 10.2872 3.37615 11.2201 3.85017L10.0434 5.02689C8.72372 4.15072 6.96938 4.32613 5.84929 5.44624C4.72921 6.56636 4.5538 8.32073 5.42995 9.64044L4.04391 11.0265C2.97747 10.1581 2.12178 9.05913 1.54118 7.81235ZM8.20802 9.80511C9.31262 9.80511 10.2081 8.90964 10.2081 7.80502C10.2069 7.50802 10.1385 7.21512 10.0081 6.94831L7.35133 9.6051C7.61814 9.73558 7.91102 9.80396 8.20802 9.80511ZM6.20797 7.80502C6.20797 6.7004 7.10342 5.80493 8.20802 5.80493C8.50502 5.80608 8.7979 5.87446 9.06471 6.00494L6.40797 8.66173C6.2775 8.39492 6.20912 8.10203 6.20797 7.80502ZM5.19594 11.7599C6.12887 12.2339 7.1616 12.478 8.20802 12.4719C12.4028 12.4719 14.3655 8.90974 14.8749 7.80502C14.2962 6.555 13.44 5.45345 12.3715 4.5842L10.9861 5.9696C11.8622 7.28931 11.6868 9.04368 10.5667 10.1638C9.44666 11.2839 7.69232 11.4593 6.37264 10.5831L5.19594 11.7599Z" fill="#999999"/>
</svg>
