<svg width="22" height="21" viewBox="0 0 22 21" fill="none" xmlns="http://www.w3.org/2000/svg">
<path fill-rule="evenodd" clip-rule="evenodd" d="M10.7719 2.35743L13.5642 8.23963H19.6143L15.4258 12.3119L16.3566 18.6466L10.7719 14.9499L5.18729 18.6466L6.58345 12.3119L2.39497 8.23963H7.97961L10.7719 2.35743ZM10.7719 1C10.2283 1.00045 9.7344 1.30765 9.50608 1.78731L7.08607 6.8822H2.39497C1.83066 6.88268 1.32213 7.2134 1.10625 7.72032C0.890362 8.22724 1.00957 8.81068 1.40835 9.19888L5.05698 12.7463L3.8144 18.357C3.69477 18.8994 3.92659 19.4579 4.39987 19.7677C4.87316 20.0775 5.49267 20.0761 5.96449 19.7642L10.7673 16.5969L15.5608 19.7642C16.0177 20.067 16.6153 20.0791 17.0848 19.7951C17.5543 19.511 17.8071 18.9843 17.7295 18.452L16.9011 12.787L20.5962 9.19435C20.9911 8.80633 21.1086 8.22607 20.8943 7.72151C20.68 7.21696 20.1757 6.88629 19.6143 6.8822H14.4578L12.0378 1.78731C11.8095 1.30765 11.3155 1.00045 10.7719 1Z" fill="#222222" stroke="#222222" stroke-width="0.6"/>
</svg>
