<svg width="91" height="35" viewBox="0 0 91 35" fill="none" xmlns="http://www.w3.org/2000/svg">
<path d="M46.5933 35C56.4556 35 62.9468 27.0583 67.9058 20.0784C72.0848 14.3078 79.2795 4.2516 90.6253 2.39877C91.2104 2.29977 91.0711 1.84717 90.479 1.80474C85.3743 1.52692 80.3084 2.84494 75.9642 5.5811C68.3028 10.199 62.6195 19.7248 56.3581 24.4559C52.8756 27.0512 47.2341 29.6608 41.9268 26.7472C41.9268 26.7472 36.8982 24.3639 37.1141 17.7305C37.1141 17.7305 37.1141 10.8567 43.682 9.49891C43.682 9.49891 48.3276 8.66443 50.5006 12.3276C50.7165 12.7025 50.7722 13.2258 50.1523 12.7449C49.1483 12.0037 47.8973 11.6938 46.6699 11.8821C44.6938 12.0955 43.0348 13.4877 42.4562 15.418C41.8993 17.3948 42.4312 19.5229 43.8491 20.9907C43.8491 20.9907 45.2909 22.8506 48.432 22.695C54.8258 22.7516 60.8574 14.1451 62.6891 12.3206C66.6034 8.3462 73.3176 1.57137 85.1997 0.772247C85.8056 0.736888 85.736 0.319649 85.13 0.227714C79.6765 -0.564333 67.0422 0.100421 55.5292 12.3842C54.1223 7.48343 49.4559 4.24452 43.7864 4.3506C38.7578 4.45668 30.2188 8.3957 30.2188 18.8903C30.2188 30.0356 39.705 35 46.5933 35Z" fill="#00AAB5"/>
<path d="M32.4964 30.4104C29.7441 27.221 28.229 23.1237 28.2339 18.8833C28.2339 18.6853 28.2339 18.4872 28.2339 18.2892C24.2778 13.6855 20.0083 8.62909 15.0006 5.60234C10.6821 2.8852 5.65009 1.57025 0.576299 1.83304C-0.12019 1.87547 -0.210733 2.32807 0.443966 2.44122C11.734 4.30112 18.9218 14.3219 23.0798 20.0784C25.6847 23.7487 28.5612 27.6736 32.2596 30.5801C32.6844 30.9196 32.8307 30.8064 32.4964 30.4104Z" fill="#5785C5"/>
<path d="M5.9114 0.227729C5.2776 0.319663 5.21491 0.736902 5.86961 0.779333C17.7099 1.53602 24.8698 8.82003 28.3314 12.3206C28.5403 12.5327 28.8189 12.851 29.1602 13.2258C29.7127 11.5856 30.5039 10.0386 31.5074 8.63616C21.1854 0.0014288 10.7241 -0.472385 5.9114 0.227729Z" fill="#F99D1B"/>
</svg>
