<svg width="22" height="22" viewBox="0 0 22 22" fill="none" xmlns="http://www.w3.org/2000/svg">
<path fill-rule="evenodd" clip-rule="evenodd" d="M11.9487 1.22657C11.4014 0.757809 10.5986 0.757809 10.0513 1.22657L0.828187 9.13062C0.370175 9.52482 0.196884 10.1616 0.391042 10.7369C0.585199 11.3122 1.10744 11.7094 1.70844 11.7389L2.77719 11.7439V19.643C2.77719 20.4615 3.43403 21.125 4.24428 21.125H17.7557C18.566 21.125 19.2228 20.4615 19.2228 19.643V11.7439H20.2916C20.8926 11.7144 21.4148 11.3172 21.609 10.7418C21.8031 10.1665 21.6298 9.52976 21.1718 9.13556L11.9487 1.22657ZM10.511 19.6479H9.53291V15.2019H12.4671V19.6479H10.511ZM17.7557 10.2619V19.6479H13.9342V15.2019C13.9342 14.3834 13.2773 13.7199 12.4671 13.7199H9.53291C8.72266 13.7199 8.06582 14.3834 8.06582 15.2019V19.6479H4.24428V10.2619H1.7769L11 2.35784L20.2231 10.2619H17.7557Z" fill="#222222"/>
<path d="M11.9487 1.22657L12.0464 1.11271L12.0463 1.11264L11.9487 1.22657ZM10.0513 1.22657L9.95371 1.11264L9.95368 1.11268L10.0513 1.22657ZM0.828187 9.13062L0.730579 9.01672L0.730337 9.01693L0.828187 9.13062ZM1.70844 11.7389L1.70108 11.8889L1.70775 11.8889L1.70844 11.7389ZM2.77719 11.7439H2.92719V11.5946L2.77788 11.5939L2.77719 11.7439ZM19.2228 11.7439V11.5939H19.0728V11.7439H19.2228ZM20.2916 11.7439V11.8941L20.2989 11.8937L20.2916 11.7439ZM21.1718 9.13556L21.2697 9.02187L21.2695 9.02169L21.1718 9.13556ZM9.53291 19.6479H9.38291V19.7979H9.53291V19.6479ZM9.53291 15.2019V15.0519H9.38291V15.2019H9.53291ZM12.4671 15.2019H12.6171V15.0519H12.4671V15.2019ZM12.4671 19.6479V19.7979H12.6171V19.6479H12.4671ZM17.7557 10.2619V10.1119H17.6057V10.2619H17.7557ZM17.7557 19.6479V19.7979H17.9057V19.6479H17.7557ZM13.9342 19.6479H13.7842V19.7979H13.9342V19.6479ZM8.06582 19.6479V19.7979H8.21582V19.6479H8.06582ZM4.24428 19.6479H4.09428V19.7979H4.24428V19.6479ZM4.24428 10.2619H4.39428V10.1119H4.24428V10.2619ZM1.7769 10.2619L1.6793 10.148L1.37136 10.4119H1.7769V10.2619ZM11 2.35784L11.0976 2.24394L11 2.16029L10.9024 2.24394L11 2.35784ZM20.2231 10.2619V10.4119H20.6286L20.3207 10.148L20.2231 10.2619ZM12.0463 1.11264C11.4428 0.595786 10.5572 0.595786 9.95371 1.11264L10.1489 1.3405C10.6401 0.919832 11.3599 0.919832 11.8511 1.3405L12.0463 1.11264ZM9.95368 1.11268L0.730579 9.01672L0.925796 9.24451L10.1489 1.34047L9.95368 1.11268ZM0.730337 9.01693C0.225736 9.45123 0.0353532 10.152 0.248917 10.7849L0.533167 10.6889C0.358415 10.1711 0.514614 9.59841 0.926038 9.2443L0.730337 9.01693ZM0.248917 10.7849C0.462553 11.4179 1.03775 11.8562 1.70109 11.8888L1.7158 11.5891C1.17712 11.5627 0.707846 11.2065 0.533167 10.6889L0.248917 10.7849ZM1.70775 11.8889L2.7765 11.8939L2.77788 11.5939L1.70913 11.589L1.70775 11.8889ZM2.62719 11.7439V19.643H2.92719V11.7439H2.62719ZM2.62719 19.643C2.62719 20.5429 3.34976 21.275 4.24428 21.275V20.975C3.5183 20.975 2.92719 20.3801 2.92719 19.643H2.62719ZM4.24428 21.275H17.7557V20.975H4.24428V21.275ZM17.7557 21.275C18.6502 21.275 19.3728 20.5429 19.3728 19.643H19.0728C19.0728 20.3801 18.4817 20.975 17.7557 20.975V21.275ZM19.3728 19.643V11.7439H19.0728V19.643H19.3728ZM19.2228 11.8939H20.2916V11.5939H19.2228V11.8939ZM20.2989 11.8937C20.9623 11.8611 21.5374 11.4228 21.7511 10.7898L21.4668 10.6939C21.2922 11.2115 20.8229 11.5676 20.2842 11.5941L20.2989 11.8937ZM21.7511 10.7898C21.9646 10.157 21.7743 9.45617 21.2697 9.02187L21.074 9.24924C21.4854 9.60335 21.6416 10.1761 21.4668 10.6939L21.7511 10.7898ZM21.2695 9.02169L12.0464 1.11271L11.8511 1.34044L21.0742 9.24942L21.2695 9.02169ZM10.511 19.4979H9.53291V19.7979H10.511V19.4979ZM9.68291 19.6479V15.2019H9.38291V19.6479H9.68291ZM9.53291 15.3519H12.4671V15.0519H9.53291V15.3519ZM12.3171 15.2019V19.6479H12.6171V15.2019H12.3171ZM12.4671 19.4979H10.511V19.7979H12.4671V19.4979ZM17.6057 10.2619V19.6479H17.9057V10.2619H17.6057ZM17.7557 19.4979H13.9342V19.7979H17.7557V19.4979ZM14.0842 19.6479V15.2019H13.7842V19.6479H14.0842ZM14.0842 15.2019C14.0842 14.302 13.3616 13.5699 12.4671 13.5699V13.8699C13.1931 13.8699 13.7842 14.4648 13.7842 15.2019H14.0842ZM12.4671 13.5699H9.53291V13.8699H12.4671V13.5699ZM9.53291 13.5699C8.63839 13.5699 7.91582 14.302 7.91582 15.2019H8.21582C8.21582 14.4648 8.80693 13.8699 9.53291 13.8699V13.5699ZM7.91582 15.2019V19.6479H8.21582V15.2019H7.91582ZM8.06582 19.4979H4.24428V19.7979H8.06582V19.4979ZM4.39428 19.6479V10.2619H4.09428V19.6479H4.39428ZM4.24428 10.1119H1.7769V10.4119H4.24428V10.1119ZM1.87451 10.3758L11.0976 2.47174L10.9024 2.24394L1.6793 10.148L1.87451 10.3758ZM10.9024 2.47174L20.1255 10.3758L20.3207 10.148L11.0976 2.24394L10.9024 2.47174ZM20.2231 10.1119H17.7557V10.4119H20.2231V10.1119Z" fill="#222222"/>
</svg>
