<svg width="21" height="24" viewBox="0 0 21 24" fill="none" xmlns="http://www.w3.org/2000/svg">
<path d="M20.6346 17.4162C20.148 17.1147 19.6662 16.8185 19.1796 16.5174C19.617 16.3495 20.0545 16.1766 20.4919 16.0087C20.8407 15.8755 21.0818 15.5442 20.9736 15.154C20.8801 14.8182 20.4724 14.5318 20.1231 14.6698C19.317 14.9812 18.5108 15.2974 17.7047 15.6083C17.0315 15.1883 16.353 14.7736 15.6798 14.3536C16.3729 13.8401 17.066 13.3261 17.7587 12.8125C17.9896 12.6397 18.1324 12.3729 18.088 12.1012C18.1275 11.8295 17.9994 11.5529 17.7587 11.3997C17.0262 10.9405 16.294 10.4759 15.5619 10.0167C16.1664 9.65596 16.7709 9.30053 17.3807 8.93976C17.7738 9.12727 18.1669 9.31523 18.5605 9.50275C18.993 9.7103 19.4256 9.91786 19.863 10.125C20.1972 10.288 20.6102 10.219 20.8065 9.87777C20.9834 9.57624 20.8952 9.09253 20.5606 8.92951C19.9804 8.65292 19.3959 8.37143 18.8157 8.09483C19.4203 7.73406 20.0296 7.37863 20.6346 7.01785C21.4013 6.56354 20.7033 5.36319 19.9366 5.8175C19.1699 6.2718 18.408 6.72166 17.6413 7.17597C17.4888 6.28205 17.3364 5.38768 17.1791 4.49376C17.1152 4.12319 16.6627 3.91563 16.3286 4.00961C15.9403 4.11829 15.783 4.49376 15.8468 4.86434C16.0188 5.86694 16.1907 6.87488 16.3631 7.87748C16.368 7.89217 16.368 7.91222 16.3729 7.92692C15.8668 8.22845 15.3602 8.52954 14.8492 8.82574C14.7167 8.06499 14.5886 7.29935 14.4561 6.5386C14.3923 6.16803 13.9398 5.96047 13.6056 6.05445C13.5759 6.06425 13.5613 6.07895 13.5369 6.08919C13.4532 6.09899 13.3747 6.11903 13.2861 6.16313C12.667 6.47936 12.0523 6.8005 11.4331 7.11629V5.27856C11.8608 5.05631 12.2934 4.83895 12.721 4.61669C13.1536 4.39444 13.5861 4.17218 14.0187 3.94993C14.8102 3.54506 14.1122 2.3447 13.3207 2.74957C12.6913 3.07561 12.0625 3.39674 11.4331 3.72277V0.67044C11.4331 -0.22348 10.0522 -0.22348 10.0522 0.67044V3.86664C9.34926 3.49607 8.64149 3.12549 7.93859 2.75536C7.15238 2.34025 6.45436 3.54061 7.24057 3.95572C8.14512 4.43497 9.0541 4.90888 9.95864 5.38813C9.98834 5.40283 10.0176 5.42287 10.0522 5.43757V7.30469C9.33463 6.92922 8.62199 6.54884 7.90402 6.17337C7.82558 6.13373 7.74669 6.10923 7.66825 6.09943C7.64387 6.08964 7.62393 6.06959 7.59955 6.06469C7.26539 5.97071 6.81334 6.17827 6.74908 6.54884C6.63119 7.24055 6.5133 7.93181 6.3901 8.62352C5.94779 8.35183 5.50549 8.07524 5.06319 7.80354C5.14695 7.30469 5.23515 6.81074 5.31891 6.31189C5.40267 5.83264 5.48599 5.34849 5.56488 4.86968C5.6287 4.49911 5.46649 4.12364 5.08314 4.01496C4.74897 3.92098 4.29692 4.12854 4.23266 4.49911C4.08995 5.33869 3.94281 6.17872 3.80011 7.0232C3.06264 6.55374 2.31587 6.08964 1.56378 5.62998C0.806818 5.16053 0.108798 6.36089 0.865762 6.83034C1.50484 7.22541 2.14392 7.62092 2.78255 8.016C2.14347 8.32243 1.5044 8.62842 0.865762 8.93486C0.531599 9.09788 0.442961 9.58203 0.619793 9.88312C0.821443 10.2287 1.2243 10.2933 1.56334 10.1303C2.43819 9.7103 3.30817 9.29563 4.18302 8.87562C4.73346 9.21635 5.28877 9.55753 5.83966 9.89826C5.04325 10.3971 4.25216 10.9009 3.45575 11.4002C3.2151 11.5534 3.08702 11.83 3.12646 12.1017C3.08214 12.3783 3.22485 12.6402 3.45575 12.8179C4.14402 13.3265 4.83672 13.8405 5.52499 14.3492C4.93999 14.6948 4.3501 15.0409 3.76554 15.3914C3.25942 15.1936 2.74798 14.9963 2.24186 14.7986C1.78493 14.6209 1.32756 14.4427 0.870637 14.265C0.531599 14.1318 0.0990477 14.4084 0.0201603 14.7491C-0.0684772 15.1442 0.142923 15.4604 0.501905 15.6039C1.08691 15.831 1.6666 16.0582 2.25161 16.2804C1.61253 16.6559 0.973457 17.0363 0.334823 17.4117C-0.431891 17.866 0.266129 19.0664 1.03284 18.6121C1.82438 18.1426 2.61059 17.6785 3.40212 17.2091C3.61353 18.0438 3.82005 18.874 4.03145 19.7087C4.12496 20.0743 4.52782 20.2917 4.88193 20.1928C5.25066 20.089 5.45719 19.7038 5.36367 19.3381C5.12302 18.3849 4.88193 17.4264 4.64615 16.4728C5.16734 16.1664 5.68809 15.8555 6.20928 15.5491C6.40118 16.3098 6.59263 17.0706 6.78453 17.8313C6.8878 18.2362 7.22683 18.3698 7.5415 18.3106C7.69395 18.3551 7.86591 18.3453 8.04274 18.2513C8.71594 17.8954 9.38959 17.5449 10.0628 17.1895V19.0566C9.60586 19.2936 9.15337 19.5359 8.69644 19.7728C8.25902 20.0049 7.82159 20.232 7.38417 20.4645C6.59795 20.8796 7.29553 22.0751 8.08219 21.6649C8.74076 21.3192 9.40421 20.9683 10.0632 20.6226V23.3298C10.0632 24.2237 11.4442 24.2237 11.4442 23.3298V20.6329C12.1174 20.9785 12.7911 21.3246 13.4643 21.6702C14.2558 22.0751 14.9534 20.8801 14.1623 20.4699C13.2577 20.0053 12.3536 19.5412 11.4491 19.0717V17.234C12.1077 17.5748 12.7711 17.9159 13.4301 18.2518C13.5826 18.3306 13.7302 18.3457 13.8627 18.3257C14.1184 18.311 14.3591 18.1627 14.4428 17.8317C14.6347 17.0759 14.8213 16.3201 15.0132 15.5593C15.4998 15.8608 15.9864 16.1619 16.4731 16.4635C16.4584 16.5178 16.4385 16.5673 16.4239 16.6265C16.2812 17.1944 16.1389 17.7578 15.9962 18.3257C15.8783 18.8 15.7604 19.2691 15.6421 19.7434C15.5534 20.0939 15.7551 20.514 16.1238 20.5981C16.4828 20.6823 16.8808 20.4895 16.9743 20.114C17.215 19.1506 17.456 18.1876 17.7016 17.2242C18.4488 17.6888 19.196 18.148 19.9428 18.6121C20.6997 19.0815 21.3929 17.8812 20.6359 17.4166L20.6346 17.4162ZM14.2992 10.8559C14.8102 11.177 15.3217 11.503 15.8326 11.8242C16.0046 11.9329 16.1766 12.0415 16.349 12.1502C15.764 12.5849 15.1789 13.0196 14.5895 13.4494C14.5306 13.4891 14.4765 13.5336 14.4176 13.5728C13.626 13.0838 12.8301 12.5898 12.0385 12.1008C12.7658 11.671 13.4935 11.2411 14.2208 10.8064C14.2505 10.826 14.2748 10.8412 14.2992 10.8559ZM12.6967 8.03069C12.8886 7.93182 13.0849 7.83294 13.2768 7.7345C13.38 8.34693 13.4882 8.9647 13.5915 9.57713C12.8739 10.002 12.1613 10.427 11.4433 10.8465V8.67296C11.8612 8.46051 12.2787 8.24805 12.6967 8.03069ZM7.83533 8.40572C7.87477 8.18837 7.9089 7.96611 7.94834 7.74876C8.61179 8.09929 9.27525 8.44536 9.93427 8.79589C9.97371 8.81549 10.018 8.84043 10.0619 8.86493V10.8755C9.26062 10.3815 8.46466 9.88757 7.66337 9.39362C7.72232 9.06759 7.77639 8.73665 7.83533 8.40572ZM6.74908 13.5385C6.27221 13.1826 5.79534 12.8321 5.31891 12.4767C5.17133 12.368 5.02419 12.2593 4.87661 12.1458C5.51081 11.7458 6.14457 11.3454 6.78365 10.9454C6.90641 10.8666 7.03449 10.7922 7.15725 10.7084C7.89472 11.1628 8.63174 11.6175 9.3692 12.0767C8.51873 12.5805 7.66869 13.0842 6.81821 13.5835C6.79384 13.5688 6.76858 13.5532 6.74908 13.5385ZM8.66143 16.369C8.42078 16.4973 8.17481 16.626 7.93416 16.7494C7.77195 16.1072 7.60975 15.4649 7.44754 14.8231C8.31752 14.3095 9.1875 13.7906 10.0575 13.2771V15.6332C9.59523 15.8751 9.12855 16.1219 8.66143 16.369ZM13.4634 16.0479C13.4142 16.2457 13.365 16.443 13.3158 16.6456C12.6913 16.3245 12.0673 16.0034 11.4429 15.6822V13.3604C12.2193 13.8396 13.0011 14.3238 13.7776 14.8026C13.6743 15.2177 13.5666 15.6328 13.4634 16.0479Z" fill="#7FCFF5"/>
</svg>
